<?xml version="1.0" encoding="UTF-8" standalone="no"?>
<!-- Created with Inkscape (http://www.inkscape.org/) -->

<svg
   xmlns:dc="http://purl.org/dc/elements/1.1/"
   xmlns:cc="http://creativecommons.org/ns#"
   xmlns:rdf="http://www.w3.org/1999/02/22-rdf-syntax-ns#"
   xmlns:svg="http://www.w3.org/2000/svg"
   xmlns="http://www.w3.org/2000/svg"
   xmlns:sodipodi="http://sodipodi.sourceforge.net/DTD/sodipodi-0.dtd"
   xmlns:inkscape="http://www.inkscape.org/namespaces/inkscape"
   width="210mm"
   height="297mm"
   viewBox="0 0 210 297"
   version="1.1"
   id="svg4724"
   inkscape:version="0.92.3 (2405546, 2018-03-11)"
   sodipodi:docname="mrs_icon.svg">
  <defs
     id="defs4718">
    <clipPath
       clipPathUnits="userSpaceOnUse"
       id="clipPath110">
      <path
         d="M 302.4,50.4 H 561.6 V 345.6 H 302.4 Z"
         id="path108"
         inkscape:connector-curvature="0" />
    </clipPath>
  </defs>
  <sodipodi:namedview
     id="base"
     pagecolor="#ffffff"
     bordercolor="#666666"
     borderopacity="1.0"
     inkscape:pageopacity="0.0"
     inkscape:pageshadow="2"
     inkscape:zoom="0.93"
     inkscape:cx="256.29356"
     inkscape:cy="560"
     inkscape:document-units="mm"
     inkscape:current-layer="g106"
     showgrid="false"
     inkscape:window-width="1853"
     inkscape:window-height="1025"
     inkscape:window-x="67"
     inkscape:window-y="27"
     inkscape:window-maximized="1" />
  <metadata
     id="metadata4721">
    <rdf:RDF>
      <cc:Work
         rdf:about="">
        <dc:format>image/svg+xml</dc:format>
        <dc:type
           rdf:resource="http://purl.org/dc/dcmitype/StillImage" />
        <dc:title></dc:title>
      </cc:Work>
    </rdf:RDF>
  </metadata>
  <g
     inkscape:label="Layer 1"
     inkscape:groupmode="layer"
     id="layer1">
    <g
       clip-path="url(#clipPath110)"
       id="g106"
       transform="matrix(0.23781691,0,0,-0.35277777,-17.720972,203.7598)"
       inkscape:export-xdpi="96"
       inkscape:export-ydpi="96">
      <path
         inkscape:connector-curvature="0"
         id="path112"
         style="fill:none;stroke:#000000;stroke-width:1.72834766;stroke-linecap:round;stroke-linejoin:round;stroke-miterlimit:10;stroke-dasharray:none;stroke-opacity:1"
         d="m 553.19104,172.04519 -0.50394,0.20688 -0.51361,-0.33101 -0.51362,0.22758 -0.50394,0.14481 -0.51361,-0.33101 -0.50394,0.57928 -0.51361,0.83788 -0.51362,-0.65169 -0.50394,0.16551 -0.51361,-0.46549 -0.51362,0.0827 -0.50393,0.33102 -0.51362,-0.42411 -0.51363,-0.20689 -0.50393,0.69307 -0.51362,-0.2793 -0.51362,0.0103 -0.50393,-0.10344 -0.51362,0.34136 -0.51362,0.16551 -0.50393,0.0517 h -0.51362 l -0.51362,-0.19654 -0.50393,0.42411 -0.51362,0.0621 -0.51362,0.65169 -0.50393,0.0103 -0.51362,-0.45514 -0.51362,0.71375 -0.50393,0.39309 -0.51362,0.74478 -0.51362,-0.21723 -0.50393,0.33101 -0.51362,0.67238 -0.51363,0.49653 -0.50392,0.37239 -0.51363,0.80685 -0.51362,1.17925 -0.50393,1.28269 -0.51362,1.18959 -0.51362,0.74479 -0.50393,1.01373 -0.51362,0.9103 -0.50393,0.68272 -0.51362,1.06546 -0.51362,0.93098 -0.50393,0.7241 -0.51362,-0.71375 -0.51362,0.062 -0.50393,0.27929 -0.51362,-0.45514 -0.51362,0.12413 -0.50393,-0.1862 -0.51362,0.31033 -0.51362,-0.52755 -0.50393,0.0724 -0.51362,-0.35171 -0.51362,0.062 -0.50393,-0.96201 -0.51362,-1.10684 -0.51363,-0.9827 -0.50392,-0.62066 -0.51363,-1.03443 -0.51362,0.74479 -0.50393,-0.96201 -0.51362,-1.34476 -0.51362,-0.28963 -0.50393,0.54823 -0.51362,-0.67237 -0.51362,-0.32067 -0.50393,-0.12413 -0.51362,0.28964 -0.51362,-0.1862 -0.50393,0.0414 -0.51362,-0.15517 -0.51362,0.0827 -0.50393,-0.17585 -0.51362,0.0827 -0.51362,0.31033 -0.50393,0.93098 -0.51362,0.19654 -0.50393,-0.20688 -0.51362,0.4448 -0.51362,0.36205 -0.50393,0.41377 -0.51362,-0.38274 -0.51363,0.062 -0.50393,1.0034 -0.51362,0.96202 -0.51362,0.20688 -0.50393,-0.27929 -0.51362,-0.16551 -0.51362,0.73444 -0.50393,0.40343 -0.51362,0.54824 -0.51362,1.12752 -0.50393,0.32068 -0.51362,-0.42411 -0.51362,-1.53096 -0.50393,-0.58962 -0.51362,-0.47583 -0.51362,0.7034 -0.50393,0.43446 -0.51362,0.38274 -0.51362,1.62406 -0.50393,1.09648 -0.51362,-0.22757 -0.51362,-1.39648 -0.50393,-1.03443 -0.51362,-0.55858 -0.51362,0.631 -0.50394,-0.0414 -0.51361,0.66204 -0.51362,0.0931 -0.50393,0.70341 -0.51362,0.45515 -0.50393,-1.14822 -0.51362,0.0931 -0.51362,-0.48619 -0.50393,0.0517 -0.51362,-0.40343 -0.51362,-0.13448 -0.50393,-0.41377 -0.51362,0.0931 -0.51362,-0.69306 -0.50393,-0.50687 -0.51362,-0.68272 -0.51362,-0.0103 -0.50393,0.46548 -0.51362,-0.062 -0.51362,0.56893 -0.50393,-0.2586 -0.51362,0.55859 -0.51363,-0.27929 -0.50392,0.23791 -0.51363,0.18619 -0.51362,-0.0827 -0.50393,0.36205 -0.51362,0.1655 -0.51362,-0.39307 -0.50393,0.38273 -0.51362,-0.34135 -0.51362,-0.48619 -0.50393,0.6517 -0.51362,-0.0207 -0.51362,-0.43446 -0.50393,-0.062 -0.51362,-0.65169 -0.51362,0.44481 -0.50393,-0.87927 -0.51362,0.10344 -0.51362,-0.46549 -0.50393,0.25861 -0.51362,-0.22758 -0.50393,0.78617 -0.51362,0.20688 -0.51362,-0.31033 -0.50393,-0.73443 -0.51363,0.41376 -0.51362,0.12413 -0.50393,0.29999 -0.51362,0.29998 -0.51362,-0.57927 -0.50393,0.71375 -0.51362,-0.77582 -0.51362,0.26895 -0.50393,0.16551 -0.51362,0.11378 -0.51362,0.71376 -0.50393,0.61031 -0.51362,0.54824 -0.51362,0.31033 -0.50393,0.0207 -0.51362,0.28964 -0.51362,0.49652 -0.50393,-0.50687 -0.51362,-0.38273 -0.51362,0.78617 -0.50393,1.53094 -0.51362,2.56538 -0.51363,1.94472 -0.50392,3.40327 -0.51363,4.18942 -0.51362,8.97882 -0.50393,20.01615 -0.51362,36.72212 -0.51362,48.28702 -0.50393,26.60544 -0.51362,-12.23726 -0.51362,-27.89847 -0.50393,-18.01971 -0.51362,-11.20284 -0.50393,-12.02003 -0.51362,-12.30967 -0.51362,-10.71665 -0.50393,-7.07548 -0.51362,-5.26522 -0.51362,-3.48603 -0.50393,-0.80684 -0.51362,-0.56894 -0.51362,-0.64134 -0.50393,-0.87927 -0.51362,-2.00678 -0.51362,-3.61015 -0.50393,-4.07564 -0.51362,-1.5413 -0.51363,-0.84822 -0.50392,0.0103 -0.51363,0.15516 -0.51362,0.58963 -0.50393,-1.48958 -0.51362,-1.1689 -0.51361,-1.01373 -0.50394,-1.41717 -0.51362,-0.89995 -0.51361,0.4448 -0.50394,1.82059 -0.51361,-0.0931 -0.51362,1.24131 -0.50393,1.03443 -0.51362,2.65848 -0.51362,3.63083 -0.50393,0.92064 -0.51362,-0.93098 -0.51362,-4.46872 -0.50393,-3.41361 -0.51362,-0.41377 -0.51362,1.64474 -0.50393,5.95829 -0.51363,7.71682 -0.50392,3.89979 -0.51363,-0.78616 -0.51362,-4.73767 -0.50393,-6.57896 -0.51362,-7.05478 -0.51362,-2.56539 -0.50393,-0.76547 -0.51362,-0.40342 -0.51362,0.4448 -0.50393,1.40682 -0.51362,3.49636 -0.51362,2.56538 -0.50393,3.14465 -0.51362,-0.47583 -0.51362,-1.23097 -0.50393,-0.61031 -0.51362,0.57927 -0.51362,-0.72409 -0.50393,-4.03426 -0.51362,-6.15484 -0.51362,-3.36188 -0.50393,-2.25505 -0.51362,-1.17925 -0.51363,-2.0585 -0.50392,-0.85858 -0.51363,0.11379 -0.51362,1.68611 -0.50393,3.09294 -0.51362,3.0412 -0.51362,1.8206 -0.50393,1.47922 -0.51362,2.01714 -0.51362,-0.39308 -0.50393,-3.49637 -0.51362,-4.78939 -0.50393,-3.12397 -0.51362,-0.29998 -0.51362,1.8206 -0.50393,1.08614 -0.51362,-0.16551 -0.51362,-3.03086 -0.50393,-3.24811 -0.51362,-1.41716 -0.51362,-0.95168 -0.50393,-0.71374 -0.51362,1.22062 -0.51362,1.27234 -0.50393,3.25844 -0.51362,1.86197 -0.51363,-0.71375 -0.50392,-4.0653 -0.51363,-3.0619 -0.51362,0.24826 -0.50393,3.42395 -0.51362,3.18604 -0.51362,0.67237 -0.50393,-1.97575 -0.51362,-2.32746 -0.51362,-0.26895 -0.50393,-0.95167 -0.51362,0.78616 -0.51362,0.39308 -0.50393,-1.28268 -0.51362,-0.17586 -0.51362,0.0724 -0.50393,0.37239 -0.51362,0.0724 -0.51362,0.1862 -0.50393,-0.17585 -0.51362,0.64135 -0.51362,0.54824 -0.50393,0.21723 -0.51363,0.86892 -0.50392,-0.38274 -0.51363,-0.4655 -0.51362,-0.77581 -0.50393,0.37239 -0.51362,0.57928 -0.51362,2.0585 -0.50393,3.15501 -0.51362,4.10667 -0.51362,6.42378 -0.50393,11.06836 -0.51362,18.4852 -0.51362,24.01937 -0.50393,19.861 -0.51362,1.3551 -0.51362,-16.6129 -0.50393,-21.06091 -0.51362,-17.01632 -0.51361,-11.21317 -0.50394,-6.8479 -0.51361,-4.43769 -0.51362,-3.21707 -0.50394,-2.32745 -0.51361,-1.29304 -0.51363,-1.04477 -0.50392,-0.94133 -0.51363,-0.20688 -0.51362,-0.0931 -0.50393,0.32067 -0.51362,0.78617 -0.51362,1.97575 -0.50393,2.77226 -0.51362,4.17908 -0.51362,7.08582 -0.50393,11.87521 -0.51362,17.67835 -0.51362,16.50944 -0.50393,3.14465 -0.51362,-11.058 -0.50393,-15.21642 -0.51362,-11.44075 -0.51362,-6.69274 -0.50393,-2.28608 -0.51362,-1.22063 -0.51362,-0.77581 -0.50393,-2.19299 -0.51362,-3.42395 -0.51362,-3.40326 -0.50393,-3.22741 -0.51363,-2.41021 -0.51362,-1.0758 -0.50393,0.48618 -0.51362,2.05851 -0.51362,1.40681 -0.50393,0.55859 -0.51362,-0.4448 -0.51362,-1.71715 -0.50393,-0.75513 -0.51362,-1.85162 -0.51362,-0.79651 -0.50393,-1.15856 -0.51362,-0.0517 -0.51362,1.10684 -0.50393,1.09649 -0.51362,1.00339 -0.51362,0.86892 -0.50393,0.20688 -0.51362,1.46889 -0.51362,0.0414 -0.50393,0.58963 -0.51362,-0.15517 -0.51363,-0.27929 -0.50392,-0.65169 -0.51363,-0.47583 -0.51362,1.15855 -0.50393,1.93439 -0.51362,4.08597 -0.50393,6.83756 -0.51362,8.14094 -0.51362,6.55825 -0.50393,5.38937 -0.51362,1.73783 -0.51362,-2.89639 -0.50393,-8.93744 -0.51362,-7.83061 -0.51362,-4.91352 -0.50393,-1.51026 -0.51362,1.37579 -0.51362,3.5067 -0.50393,6.68239 -0.51362,4.61354 -0.51362,1.14821 -0.50393,-2.28608 -0.51362,-3.67221 -0.51362,-3.98254 -0.50393,-3.05156 -0.51362,-1.03442 -0.51363,0.36204 -0.50392,0.99305 -0.51363,0.17585 -0.51362,0.55859 -0.50393,-0.59996 -0.51362,0.73444 -0.51362,1.82059 -0.50393,3.6929 -0.51362,2.02748 -0.51362,0.45515 -0.50393,-3.27914 -0.51362,-2.90674 -0.51362,-3.02052 -0.50393,-0.0207 -0.51362,1.09648 -0.51362,0.11379 -0.50393,-0.96201 -0.51362,0.71375 -0.50393,-0.9103 -0.51362,-0.4448 -0.51362,-0.24826 -0.50393,0.38273 -0.51362,1.86197 -0.51362,2.60676 -0.50393,4.66526 -0.51362,7.22029 -0.51362,9.70292 -0.50394,12.52691 -0.51362,10.02359 -0.51361,2.91708 -0.50394,-1.95507 -0.51361,-7.00306 -0.51362,-8.67884 -0.50394,-10.55114 -0.51361,-8.0375 -0.51362,-6.37206 -0.50393,-5.28592 -0.51362,-3.47568 -0.51362,-2.48262 -0.50393,-1.13787 -0.51362,-0.43445 -0.51362,-0.42412 -0.50393,0.0724 -0.51362,1.47923 -0.51362,1.91369 -0.50393,0.39308 -0.51362,0.94133 -0.51363,0.2793 -0.50392,-1.01375 -0.51363,-2.8757 -0.51362,-1.88265 -0.50393,-3.58947 -0.51362,-3.72393 -0.50393,-2.73088 -0.51362,-1.893 -0.51362,0.0103 -0.50393,-0.48618 -0.51362,-0.33102 -0.51362,-0.40342 -0.50393,-0.31033 -0.51362,-1.18959 -0.51362,-0.95167 -0.50393,0.97236 -0.51362,-0.94133 -0.51362,0.64134 -0.50393,-0.29998 -0.51362,1.10684 -0.51362,-1.18959 -0.50393,1.15855 -0.51362,-0.57928 -0.51362,0.52757 -0.50393,-0.0827 -0.51362,-0.27929 -0.51363,-0.0103 -0.50392,0.52756 -0.51363,-0.56894 -0.51362,1.08615 -0.50393,-0.65169 -0.51362,-0.17585 -0.51362,0.0827 -0.50393,0.28964 -0.51362,-0.0931 -0.51362,0.27929 -0.50393,-0.14482 -0.51362,0.0724 -0.51362,0.16551 -0.50393,-0.26896 -0.51362,0.3724 -0.51362,1.18959 -0.50393,0.12413 -0.51362,0.31033 -0.50393,1.13787"
         inkscape:export-xdpi="216.74718"
         inkscape:export-ydpi="216.74718" />
    </g>
  </g>
</svg>
